<?xml version="1.0" encoding="utf-8"?>
<!-- Generator: Adobe Illustrator 22.0.1, SVG Export Plug-In . SVG Version: 6.00 Build 0)  -->
<!DOCTYPE svg PUBLIC "-//W3C//DTD SVG 1.1//EN" "http://www.w3.org/Graphics/SVG/1.1/DTD/svg11.dtd">
<svg version="1.1" id="Layer_1" xmlns="http://www.w3.org/2000/svg" xmlns:xlink="http://www.w3.org/1999/xlink" x="0px" y="0px"
	 viewBox="0 0 77.5 77.1" style="enable-background:new 0 0 77.5 77.1;" xml:space="preserve">
<style type="text/css">
	.st0{fill:#FFFFFF;}
</style>
<g id="Layer_9">
	<path class="st0" d="M73.8,33.6l-4.7-1c-1.6-0.3-2.6-1.3-3.2-2.7c-0.4-1.2-0.9-2.6-1.5-3.8c-0.6-1.4-0.5-3,0.3-4.3l2.6-3.9
		c1.5-1.5,1.2-3.8-0.3-5.3l-1.7-1.7c-1.5-1.5-3.7-1.6-5.4-0.6L56,12.9c-1.2,0.8-2.8,0.9-4.1,0.4c-1.3-0.6-2.6-1.1-4-1.7
		c-1.5-0.6-2.6-1.8-2.7-3.4l-0.6-3.9c-0.5-2.5-2.2-4-4.2-4h-2.5c-2.1,0.1-3.7,1.3-4.1,3.3l-1,4.7c-0.3,1.6-1.3,2.6-2.7,3.2
		c-1.2,0.4-2.6,0.9-3.8,1.5c-1.4,0.6-3,0.5-4.3-0.3l-3.5-2.3C16.3,9,14,9.3,12.7,10.8L11,12.5c-1.5,1.3-1.9,3.5-0.6,5.2l2.6,4.1
		c0.8,1.2,0.9,2.8,0.4,4.1c-0.5,1.1-1.1,2.4-1.6,3.7c-0.6,1.3-1.8,2.6-3.2,2.7L4,33.1c-2.1,0.3-3.3,2-3.5,4.1v2.5
		c0.1,2.1,1.3,3.7,3.3,4.1l4.7,1c1.6,0.3,2.6,1.3,3.2,2.7c0.3,1.4,0.9,2.6,1.5,3.8c0.8,1.4,0.7,3-0.3,4.3l-2.6,3.7
		c-1.3,1.7-1,4,0.5,5.5l1.7,1.7c1.5,1.5,3.7,1.6,5.4,0.6l4.1-2.6c1.2-0.8,2.8-0.9,4.1-0.4c1.1,0.5,2.4,1.1,3.5,1.4
		c1.3,0.6,2.6,1.8,2.7,3.2l0.8,4.6c0.3,2.1,2,3.3,4.1,3.5h2.5c2.1-0.1,3.7-1.3,4.1-3.3l1-4.2c0.3-1.6,1.3-2.6,2.7-3.2
		c1.4-0.3,2.6-0.9,3.8-1.5c1.4-0.8,3-0.5,4.3,0.3l3.2,2.3c2.2,1.5,4.5,1.2,5.9-0.2l1.7-1.7c1.5-1.5,1.6-3.7,0.6-5.4l-2.6-4.1
		c-0.8-1.2-0.9-2.8-0.4-4.1c0.6-1.3,1.1-2.4,1.6-3.7c0.6-1.5,1.8-2.6,3.4-2.7l4.4-0.8c2.1-0.3,3.6-2,3.5-4.1v-2.5
		C77.3,35.7,75.8,34,73.8,33.6z M41.9,57.6c-13.1,2-24.1-9.1-22-22.1c1.3-7.9,7.7-14.2,15.7-15.4c13.1-2,24.1,9.1,22,22.1
		C56.4,50.1,50,56.4,41.9,57.6z"/>
	<g>
		<path class="st0" d="M40,23.3c8.6,0.7,14.9,8.2,14.2,16.6c-0.7,8.6-8.2,14.9-16.6,14.2c-8.4-0.6-14.9-8.2-14.2-16.6
			C24,29.2,31.4,22.7,40,23.3 M40.5,15.9c-12.7-1-23.9,8.7-24.8,21.3S24.4,61.1,37,62c12.7,1,23.9-8.7,24.8-21.3
			C62.8,28,53.2,16.8,40.5,15.9L40.5,15.9z"/>
	</g>
</g>
</svg>
