<?xml version="1.0" encoding="utf-8"?>
<!-- Generator: Adobe Illustrator 22.1.0, SVG Export Plug-In . SVG Version: 6.00 Build 0)  -->
<svg version="1.1" xmlns="http://www.w3.org/2000/svg" xmlns:xlink="http://www.w3.org/1999/xlink" x="0px" y="0px"
	 viewBox="0 0 86 75" style="enable-background:new 0 0 86 75;" xml:space="preserve">
<style type="text/css">
	.st0{display:none;opacity:0.33;}
	.st1{display:inline;}
	.st2{fill:none;stroke:#FFFFFF;stroke-width:6.4519;stroke-linecap:round;stroke-miterlimit:10;}
	.st3{fill:#FFFFFF;}
	.st4{fill:none;stroke:#FFFFFF;stroke-width:4;stroke-linecap:round;stroke-miterlimit:10;}
	.st5{fill:none;stroke:#FFFFFF;stroke-width:5;stroke-linecap:round;stroke-miterlimit:10;}
</style>
<g id="Layer_2" class="st0">
	<rect x="-57.5" y="-64.5" class="st1" width="203" height="204"/>
</g>
<g id="Layer_1">
	<path class="st2" d="M70.6,68.3c14.8-14.8,14.8-38.7,0-53.5s-38.7-14.8-53.5,0s-14.8,38.7,0,53.5"/>
	<path class="st3" d="M0.3,70.4c-0.1,1.4,1.1,2.7,2.5,2.7L21,74.1c1.4,0.1,2.7-1.1,2.7-2.5l0,0c0.1-1.4-1.1-2.7-2.5-2.7L3,67.9
		C1.6,67.9,0.4,69,0.3,70.4L0.3,70.4z"/>
	<path class="st3" d="M21.5,50.5c-1.4,0-2.6,1.2-2.6,2.6l-0.2,18.2c0,1.4,1.2,2.6,2.6,2.6l0,0c1.4,0,2.6-1.2,2.6-2.6l0.2-18.2
		C24.1,51.7,23,50.5,21.5,50.5L21.5,50.5z"/>
	<line class="st4" x1="43.9" y1="37" x2="43.9" y2="14.9"/>
	<line class="st4" x1="43.3" y1="41.7" x2="61.8" y2="41.7"/>
	<circle class="st5" cx="43.9" cy="41.7" r="2.5"/>
</g>
</svg>
