<?xml version="1.0" encoding="utf-8"?>
<!-- Generator: Adobe Illustrator 21.1.0, SVG Export Plug-In . SVG Version: 6.00 Build 0)  -->
<svg version="1.1" id="Layer_1" xmlns="http://www.w3.org/2000/svg" xmlns:xlink="http://www.w3.org/1999/xlink" x="0px" y="0px"
	 viewBox="0 0 76.7 76.7" style="enable-background:new 0 0 76.7 76.7;" xml:space="preserve">
<style type="text/css">
	.st0{fill:#FFFFFF;}
</style>
<circle class="st0" cx="39" cy="18.8" r="6.3"/>
<path class="st0" d="M44,59.1c0,2.8-2.2,5-5,5l0,0c-2.8,0-5-2.2-5-5V37.2c0-2.8,2.2-5,5-5l0,0c2.8,0,5,2.2,5,5V59.1z"/>
<path class="st0" d="M38.3,76.7C17.2,76.7,0,59.5,0,38.3C0,17.2,17.2,0,38.3,0c21.1,0,38.3,17.2,38.3,38.3
	C76.7,59.5,59.5,76.7,38.3,76.7z M38.3,6.1C20.5,6.1,6.1,20.5,6.1,38.3c0,17.8,14.5,32.3,32.3,32.3c17.8,0,32.3-14.5,32.3-32.3
	C70.6,20.5,56.1,6.1,38.3,6.1z"/>
</svg>
