<?xml version="1.0" encoding="utf-8"?>
<!-- Generator: Adobe Illustrator 22.1.0, SVG Export Plug-In . SVG Version: 6.00 Build 0)  -->
<svg version="1.1" id="Layer_1" xmlns="http://www.w3.org/2000/svg" xmlns:xlink="http://www.w3.org/1999/xlink" x="0px" y="0px"
	 viewBox="0 0 77.9 78.9" style="enable-background:new 0 0 77.9 78.9;" xml:space="preserve">
<style type="text/css">
	.st0{fill:#FFFFFF;}
</style>
<path class="st0" d="M39.1,77.6C18,77.6,0.8,60.5,0.8,39.3S18,1,39.1,1s38.3,17.2,38.3,38.3S60.3,77.6,39.1,77.6z M39.1,7
	C21.3,7,6.8,21.5,6.8,39.3s14.5,32.3,32.3,32.3s32.3-14.5,32.3-32.3S57,7,39.1,7z"/>
<g id="aywHiX.tif">
	<g>
		<path class="st0" d="M52,37.2c-1.3,4.5-4.3,7.5-8.8,9c-0.2,0.1-0.3,0.1-0.5,0.2c0,0.9-0.2,1.7-0.7,2.5c-0.8,0.9-2,1.4-3.2,1.2
			c-1.5-0.3-2.6-1.7-2.6-3.3c0-1.1,0-2.2,0-3.4c0.1-1.7,1.5-3,3.3-3c2.8-0.1,5.1-1.7,6-4.2c1.7-4.4-1.8-9.1-6.5-8.8
			c-3.3,0.2-6,3.1-6,6.4c0,1.7-1.2,3.1-2.8,3.3c-1.6,0.2-3-0.8-3.5-2.4c0-0.1-0.3-0.9-0.1-1.9c0.1-0.3,0.1-0.7,0.2-1
			c0.9-5,3.8-8.3,8.5-10.1c2.8-1.1,6.3-0.6,6.8-0.5c5.2,1.2,8.6,4.4,10,9.6C52.6,33.1,52.6,34.8,52,37.2z"/>
		<path class="st0" d="M39,59.3c-1-0.3-1.8-0.7-2.3-1.7c-0.9-1.6-0.2-3.7,1.4-4.5c1.7-0.8,3.7,0,4.4,1.7s-0.1,3.7-1.9,4.3
			c-0.2,0.1-0.3,0.1-0.5,0.2C39.7,59.3,39.3,59.3,39,59.3z"/>
	</g>
</g>
</svg>
